<?xml version="1.0" encoding="utf-8"?>
<!-- Generator: Adobe Illustrator 25.0.0, SVG Export Plug-In . SVG Version: 6.00 Build 0)  -->
<svg version="1.1" id="Livello_1" xmlns="http://www.w3.org/2000/svg" xmlns:xlink="http://www.w3.org/1999/xlink" x="0px" y="0px"
	 viewBox="0 0 595.28 841.89" style="enable-background:new 0 0 595.28 841.89;" xml:space="preserve">
<style type="text/css">
	.st0{fill:#F6901E;}
</style>
<g>
	<path class="st0" d="M358.03,190.36c16.73,0,33.46,0,50.19,0c0.12,0.37,0.44,0.35,0.74,0.36c4.94,0.3,9.72,1.46,14.36,3.02
		c8.88,2.99,17.67,6.28,26.5,9.43c11.64,4.15,23.28,8.31,34.94,12.42c13.63,4.8,27.27,9.57,40.92,14.31
		c1.62,0.56,2.72,1.19,2.36,3.22c-0.22,1.24-0.04,2.56-0.04,3.84c0,15.81,0,31.62,0.01,47.43c0,1.09,0.08,1.95-1.54,1.36
		c-8.64-3.14-17.3-6.22-25.96-9.28c-13.06-4.61-26.14-9.18-39.2-13.78c-15.42-5.43-30.85-10.86-46.25-16.37
		c-1.48-0.53-1.74-0.41-1.74,1.16c0.05,15.69,0.03,31.37,0.03,47.06c0,2.41,0,2.41-2.42,2.41c-88.89,0-177.79,0-266.68,0
		c-0.76,0-1.51,0-2.46,0c0.25,0.57,0.34,0.85,0.49,1.09c5.89,9.38,11.79,18.76,17.69,28.15c4.84,7.71,9.74,15.38,14.49,23.14
		c0.94,1.54,1.81,2.25,3.73,2.25c91.09-0.06,182.18-0.05,273.28-0.05c1.06,0,2.07-0.15,2.76,1.1c1.15,2.09,2.52,4.06,3.78,6.1
		c7.55,12.15,15.07,24.32,22.65,36.45c5.84,9.34,11.76,18.63,17.61,27.97c7.72,12.33,15.37,24.7,23.12,37.01
		c5.14,8.15,7.57,16.8,5.93,26.5c-1.21,7.15-4.22,13.36-9.03,18.65c-7.44,8.18-16.96,11.75-27.87,11.76
		c-83.46,0.02-166.92,0.02-250.38-0.03c-1.72,0-2.22,0.34-2.21,2.15c0.08,15.81,0.03,31.62,0.07,47.43c0,1.29-0.2,1.79-1.66,1.77
		c-15.48-0.28-30.97,0.4-46.45-0.38c-5.43-0.27-10.74-1.17-15.86-2.92c-9.83-3.36-19.62-6.84-29.41-10.3
		c-10.24-3.62-20.46-7.3-30.71-10.92c-14.3-5.05-28.61-10.07-42.93-15.06c-1.12-0.39-1.56-0.82-1.55-2.1
		c0.08-7.69,0.04-15.38,0.04-23.07c0-10.19,0-20.38,0-30.72c0.59,0.17,1.09,0.3,1.57,0.46c5.35,1.87,10.71,3.74,16.06,5.64
		c7.76,2.76,15.5,5.58,23.27,8.32c16.04,5.67,32.1,11.3,48.15,16.94c7.37,2.59,14.76,5.15,22.13,7.76c2.03,0.72,2.01,0.76,2.01-1.43
		c0-15.63,0.04-31.25-0.05-46.88c-0.01-1.91,0.48-2.37,2.37-2.37c89.14,0.05,178.28,0.04,267.41,0.04c0.77,0,1.54,0,2.45,0
		c-0.35-1.4-1.21-2.26-1.83-3.26c-6.03-9.65-12.06-19.29-18.1-28.94c-4.23-6.75-8.52-13.46-12.65-20.26
		c-0.95-1.56-1.91-2.16-3.78-2.16c-90.91,0.05-181.82,0.05-272.73,0.05c-0.55,0-1.1-0.01-1.65,0c-0.51,0.01-0.81-0.09-1.14-0.62
		c-4.45-7.17-8.96-14.3-13.44-21.45c-6.02-9.59-12.02-19.19-18.05-28.77c-5.07-8.06-10.19-16.09-15.25-24.15
		c-5.85-9.32-11.68-18.66-17.47-28.02c-2.99-4.83-6.26-9.53-8.04-15c-0.69-2.12-1.1-4.34-1.63-6.52c0-3.17,0-6.35,0-9.52
		c0.74-0.54,0.27-1.34,0.43-2.01c2.04-8.99,6.53-16.42,13.92-22.04c5.96-4.54,12.68-7.05,20.16-7.05
		c84.15-0.04,168.31-0.03,252.46,0.01c1.65,0,2.11-0.38,2.1-2.07C358,223.19,358.03,206.77,358.03,190.36z"/>
</g>
</svg>
