<svg width="1317" height="1339" viewBox="0 0 1317 1339" fill="none" xmlns="http://www.w3.org/2000/svg">
<path d="M495.226 1338.88H273.081L0 515.24H222.145L495.226 1338.88Z" fill="#E33955"/>
<path d="M821.773 1338.88H1043.92L1317 515.24H1094.85L821.773 1338.88Z" fill="#E33955"/>
<path d="M273.513 1338.88H495.658L768.739 515.24H546.594L273.513 1338.88Z" fill="#E33955"/>
<path d="M1042.59 1338.88H820.445L547.363 515.24H769.508L1042.59 1338.88Z" fill="#E33955"/>
<path d="M998.326 7.18355e-06V19.8126C998.326 205.33 845.701 356.291 658.07 356.291C470.469 356.291 317.814 205.33 317.814 19.8126V7.18355e-06H86.5928V19.8126C86.5928 331.441 342.942 584.944 658.07 584.944C973.197 584.944 1229.58 331.441 1229.58 19.8126V7.18355e-06H998.326Z" fill="#E33955"/>
</svg>
